<?xml version="1.0" standalone="no"?>
<!DOCTYPE svg PUBLIC "-//W3C//DTD SVG 20010904//EN"
 "http://www.w3.org/TR/2001/REC-SVG-20010904/DTD/svg10.dtd">
<svg version="1.0" xmlns="http://www.w3.org/2000/svg"
 width="300.000000pt" height="300.000000pt" viewBox="0 0 300.000000 300.000000"
 preserveAspectRatio="xMidYMid meet">
<metadata>
Created by potrace 1.10, written by Peter Selinger 2001-2011
</metadata>
<g transform="translate(0.000000,300.000000) scale(0.100000,-0.100000)"
fill="#000000" stroke="none">
<path d="M2098 1923 c-2 -299 -3 -340 -5 -153 -3 247 -8 281 -35 264 -4 -3 -8
-114 -8 -247 -1 -215 -2 -240 -15 -223 -12 15 -15 51 -15 153 0 128 -1 133
-21 133 -19 0 -20 -5 -18 -112 1 -96 5 -121 26 -166 32 -68 58 -86 100 -70 29
11 34 9 73 -26 44 -40 64 -49 123 -60 24 -5 37 -4 33 2 -8 13 49 21 68 10 9
-5 24 -4 36 2 18 10 20 21 20 140 0 123 -1 130 -20 130 -19 0 -20 -7 -20 -136
0 -78 -4 -133 -9 -130 -5 3 -7 15 -4 26 4 15 0 20 -16 20 -14 0 -21 -6 -21
-20 0 -11 -4 -20 -9 -20 -5 0 -8 30 -8 67 2 57 -1 68 -15 71 -16 3 -18 -5 -18
-72 0 -44 -4 -76 -10 -76 -5 0 -10 9 -10 20 0 11 -7 20 -15 20 -8 0 -15 -7
-15 -15 0 -8 -4 -15 -10 -15 -6 0 -10 40 -10 100 0 82 -3 100 -15 100 -12 0
-15 -16 -15 -86 0 -54 -4 -83 -10 -79 -6 4 -10 93 -10 236 0 222 -1 229 -20
229 -19 0 -20 -7 -20 -206 0 -141 -3 -205 -11 -202 -7 2 -10 127 -9 401 1 393
0 397 -20 397 -20 0 -20 -5 -22 -407z"/>
<path d="M868 1808 c-2 -274 -3 -279 -5 -75 -3 209 -4 217 -23 217 -19 0 -20
-7 -20 -218 0 -176 -3 -222 -15 -238 -13 -17 -14 -6 -15 104 0 115 -1 122 -20
122 -19 0 -20 -7 -20 -140 0 -127 -2 -140 -17 -140 -16 0 -18 8 -15 60 3 55 2
60 -17 60 -18 0 -20 -7 -24 -67 -3 -57 -3 -52 -5 30 -2 90 -4 97 -22 97 -19 0
-20 -7 -21 -97 -1 -54 -4 -86 -6 -70 -6 41 -40 37 -46 -5 -3 -23 -4 -18 -5 18
-2 43 -6 53 -22 57 -18 5 -20 0 -20 -54 0 -33 -4 -59 -10 -59 -5 0 -10 7 -10
15 0 8 -7 15 -15 15 -8 0 -15 -9 -15 -20 0 -11 -4 -20 -10 -20 -5 0 -10 7 -10
15 0 8 -9 15 -20 15 -11 0 -20 -7 -20 -15 0 -12 -17 -15 -87 -16 -74 -1 -82
-3 -48 -10 22 -4 61 -8 88 -8 40 -1 47 -4 47 -21 0 -13 7 -20 20 -20 13 0 20
7 20 20 0 11 5 20 10 20 6 0 10 -9 10 -20 0 -11 7 -20 15 -20 8 0 15 7 15 15
0 8 5 15 10 15 6 0 10 -25 10 -55 0 -48 2 -55 20 -55 17 0 20 7 20 43 0 31 -6
49 -20 62 -15 14 -17 22 -9 37 5 10 14 16 20 12 5 -3 16 0 24 6 8 7 21 10 30
7 8 -4 17 -2 20 4 4 5 11 7 16 3 5 -3 7 -10 4 -15 -9 -14 51 -11 88 5 18 7 45
28 62 45 26 28 34 31 67 26 34 -6 38 -4 53 26 40 77 55 141 55 241 0 91 -1 98
-20 98 -19 0 -20 -7 -20 -129 0 -116 -11 -191 -28 -191 -4 0 -6 126 -4 280 3
276 2 280 -18 280 -20 0 -20 -6 -22 -292z"/>
<path d="M1203 2092 c-38 -6 -98 -83 -131 -168 -17 -44 -45 -149 -62 -234 -44
-216 -78 -280 -134 -250 -23 12 -31 11 -79 -13 -37 -19 -68 -27 -105 -27 -63
0 -68 -14 -9 -25 53 -10 101 -10 152 0 81 14 126 -55 180 -282 73 -304 167
-415 280 -329 25 20 52 62 97 152 59 120 93 164 126 164 8 0 50 -16 94 -36 69
-31 88 -36 137 -32 98 7 151 63 212 225 17 45 46 100 64 120 32 38 33 38 66
24 43 -18 95 -18 184 1 l70 15 -62 7 c-43 5 -74 16 -104 36 l-44 29 -33 -21
c-30 -19 -34 -19 -57 -4 -29 19 -52 63 -89 166 -53 146 -107 208 -191 218 -50
5 -83 -6 -165 -55 -30 -18 -65 -33 -77 -33 -35 0 -79 46 -103 107 -74 187
-137 258 -217 245z m88 -89 c15 -13 41 -57 59 -96 70 -157 83 -179 114 -198
41 -26 73 -19 159 33 119 72 194 61 257 -38 40 -63 61 -166 66 -313 l3 -124
-41 -80 c-75 -144 -147 -169 -287 -102 -82 39 -128 46 -163 23 -13 -8 -52 -73
-88 -144 -49 -98 -73 -134 -99 -151 -42 -28 -50 -28 -92 0 -47 30 -102 142
-129 262 -12 53 -20 98 -18 101 3 2 27 -6 54 -18 69 -31 239 -33 299 -3 56 28
85 75 85 140 0 88 -42 123 -200 165 -93 24 -110 34 -110 61 0 49 86 62 180 29
30 -11 59 -21 63 -23 6 -1 47 85 47 100 0 1 -26 11 -57 23 -75 28 -199 31
-261 5 -85 -35 -123 -125 -86 -202 25 -50 68 -77 156 -98 112 -27 138 -40 138
-68 0 -39 -26 -52 -96 -51 -44 1 -79 9 -120 28 -31 14 -59 24 -62 22 -2 -3
-14 -26 -26 -51 l-21 -46 -3 168 c-3 145 0 186 22 303 60 321 152 444 257 343z
m71 -384 c27 -11 34 -20 23 -31 -3 -3 -31 0 -63 6 -104 21 -161 7 -188 -46
-16 -32 -10 -50 28 -84 22 -20 40 -26 159 -59 77 -21 109 -52 109 -105 0 -54
-12 -75 -60 -105 -33 -21 -52 -25 -112 -25 -91 0 -172 20 -176 43 -4 21 12 21
72 1 31 -11 69 -15 112 -12 57 4 68 7 89 34 13 16 24 39 25 50 0 37 -59 79
-141 98 -123 30 -169 66 -169 132 0 56 48 101 125 117 33 7 137 -2 167 -14z
m648 -184 c23 -24 23 -25 5 -45 -29 -32 -42 -25 -43 25 -1 52 5 55 38 20z
m-1028 -50 l-4 -57 -29 28 c-16 15 -29 31 -29 35 0 11 52 59 59 54 3 -1 4 -29
3 -60z m1193 15 c8 -13 -21 -13 -47 1 -16 9 -18 13 -7 19 13 9 43 -2 54 -20z"/>
<path d="M1632 1669 c-94 -18 -146 -75 -146 -160 0 -50 20 -89 57 -113 12 -8
69 -28 126 -45 57 -16 111 -36 119 -44 22 -23 6 -54 -34 -67 -43 -15 -136 1
-197 32 -22 11 -42 17 -45 13 -3 -3 -14 -26 -23 -51 l-17 -44 26 -14 c82 -42
222 -58 305 -35 87 24 138 112 115 196 -18 65 -59 88 -235 133 -40 10 -73 32
-73 49 0 4 6 15 13 25 21 28 86 31 165 7 39 -11 72 -21 75 -21 5 0 39 92 34
95 -19 16 -77 36 -128 44 -72 12 -77 12 -137 0z m177 -50 c36 -13 44 -45 9
-35 -108 31 -170 26 -215 -16 -53 -50 -15 -108 90 -139 165 -47 197 -71 197
-143 0 -70 -74 -116 -189 -116 -76 0 -171 26 -171 47 0 17 22 17 67 -2 20 -8
66 -15 105 -15 64 0 72 3 99 29 35 35 36 54 7 96 -14 22 -35 36 -67 45 -98 27
-167 51 -181 63 -43 35 -46 119 -5 157 51 48 162 61 254 29z"/>
<path d="M2478 1491 c3 -51 0 -70 -10 -74 -7 -2 -5 -3 4 -2 21 3 42 -20 33
-35 -4 -6 -15 -8 -25 -5 -10 3 -28 0 -39 -7 -20 -12 -21 -22 -21 -165 0 -146
1 -153 20 -153 19 0 20 7 20 160 0 108 3 160 11 160 7 0 10 -37 7 -115 -3
-104 -1 -115 15 -115 15 0 17 12 17 120 0 73 4 120 10 120 6 0 10 -22 10 -50
0 -42 3 -50 19 -50 16 0 17 6 13 50 -3 33 -1 50 7 50 6 0 11 -7 11 -15 0 -8 9
-15 20 -15 11 0 20 7 20 15 0 11 13 15 53 16 96 2 120 17 30 18 -67 1 -83 4
-83 16 0 8 -9 15 -20 15 -11 0 -20 -7 -20 -15 0 -8 -5 -15 -11 -15 -8 0 -10
14 -6 40 4 35 2 40 -14 40 -15 0 -19 -7 -19 -35 0 -19 -4 -35 -10 -35 -6 0
-10 32 -10 75 0 65 -2 75 -17 75 -16 0 -18 -9 -15 -69z"/>
<path d="M2290 1373 c-14 -3 -50 -16 -81 -29 -45 -19 -63 -21 -89 -14 -46 13
-80 -8 -113 -68 -25 -46 -27 -59 -27 -161 0 -104 1 -111 20 -111 19 0 20 7 20
128 0 97 4 133 15 148 13 17 14 -7 15 -213 0 -226 1 -233 20 -233 19 0 20 8
23 248 2 219 3 207 5 -100 2 -342 2 -348 22 -348 20 0 20 4 18 340 -2 267 0
340 10 340 9 0 12 -48 12 -205 0 -198 1 -205 20 -205 19 0 20 7 20 214 0 133
4 217 10 221 6 4 10 -27 10 -85 0 -79 2 -91 16 -88 14 3 17 17 15 101 -1 63 2
97 8 97 6 0 11 -7 11 -15 0 -8 7 -15 15 -15 8 0 15 9 15 20 0 11 5 20 10 20 6
0 10 -31 10 -74 0 -65 2 -74 18 -71 14 2 17 12 15 69 0 36 3 66 8 66 5 0 9 -9
9 -20 0 -13 7 -20 20 -20 15 0 19 6 18 25 -2 22 -7 25 -40 25 -21 0 -38 5 -38
10 0 6 -3 9 -7 9 -5 -1 -19 -4 -33 -6z"/>
<path d="M580 1340 c9 -33 37 -39 43 -8 2 13 5 -19 6 -69 1 -88 2 -93 22 -93
21 0 21 4 17 90 -2 50 -1 90 4 90 4 0 8 -27 8 -60 0 -54 2 -60 21 -60 19 0 21
5 17 45 -2 36 0 45 12 43 12 -3 16 -25 18 -121 2 -109 4 -117 22 -117 19 0 20
7 20 115 0 96 3 115 15 115 13 0 15 -32 15 -224 0 -124 4 -227 8 -230 27 -16
32 17 35 229 2 204 3 199 5 -77 2 -291 2 -298 22 -298 19 0 20 7 20 268 1 236
2 264 15 242 10 -18 14 -62 15 -157 0 -126 1 -133 20 -133 19 0 20 7 20 104 0
124 -23 197 -81 258 -32 34 -41 38 -87 38 -28 0 -74 9 -101 20 -28 11 -70 19
-94 18 -42 -2 -44 -3 -37 -28z"/>
</g>
</svg>
